<?xml version="1.0" encoding="utf-8"?>
<!-- Generator: Adobe Illustrator 25.0.0, SVG Export Plug-In . SVG Version: 6.00 Build 0)  -->
<svg version="1.1" id="katman_1" xmlns="http://www.w3.org/2000/svg" xmlns:xlink="http://www.w3.org/1999/xlink" x="0px" y="0px"
	 width="70px" height="70px" viewBox="0 0 700 700" style="enable-background:new 0 0 700 700;" xml:space="preserve">
<path d="M179.6,258.9c31.6,0.7,63.4,4.9,95,9.9c4.9,0.8,7.5,2.4,5.7-5.3c-2.7-10.9-4.2-22.5,0.5-33.4c1.6-3.7,0.3-6.1-3.1-7.9
	c-3.6-2-7-4.5-10.7-6.1c-3.2-1.2-2.7-3.2-1.8-5.3c1.2-2.5,2.4-2.3,5.2-0.9c18.4,9.8,20.1,11.5,17.5,31.8c-1.1,8.5,0.3,13.5,8.2,16.8
	c2,0.8,3.4,3.1,5.3,4.1c2.6,1.4,4.5,7.9,7.6,3.7c2.8-3.9,9.6-7.1,5.9-14.6c-8.8-18.5-5.4-29.9,12.6-39.3c9.7-5.2,8.1-9.4,2.6-15.8
	c-4.7-5.5-10.4-9.7-16.8-13c-2.6-1.4-5.9-3-3.9-6.4c1.8-3.5,5.1-1.7,7.7-0.5c10,5.2,18.3,12,23.9,22.1c4.8,8.5,22.7,8.1,27.6-0.5
	c5.6-9.9,13.1-17.6,22.6-23.5c2.6-1.6,5.7-4.4,8.3-0.3c2.1,3.5-1.2,5.1-3.7,6.6c-7.4,4.7-13.7,10.7-18.7,18.2
	c-2.8,4.3-3.3,6.5,2.7,9.1c21.5,9.4,25.3,19.6,17.1,42.1c-2.3,6.4,3.6,9.2,6.3,12.9c2.9,3.9,4.2-1.8,6.4-2.9
	c12-5.6,13.5-15,11.7-27.4c-2.2-14.6,3.9-22.2,17.5-27.2c2.3-0.9,3.2,0.1,3.9,1.5c0.7,1.4,0.9,3.1,0.4,4.5c-0.3,0.9-2.1,1.3-3.2,1.8
	c-10.3,4.5-13.8,10.8-9.6,22.7c3.2,9.4,2.8,20.2-2.8,29.7c-0.4,0.7-0.5,1.5-0.5,2.1c1.2-0.1,2.4,0,3.7-0.4
	c30.5-7.7,61.4-12.4,92.7-15.7c20.5-2.2,40.8-0.9,60.5,5.3c28.6,9,34.7,27.2,17.3,51.7c-12.5,17.6-28.8,30.6-49.7,36.7
	c-4,1.1-6.7,1.8-6,7.6c1.5,14.4-4.5,23-18.2,28.3c-16.3,6.2-32.4,4.6-48.1-2.4c-2-0.8-4.8-2.8-6-2c-2.6,1.6-0.6,4.5-0.4,7
	c0.5,14,11.2,21.9,18.8,31.8c0.8,1.1,3.5,1.2,2.3,3.4c-1.7,3-4.2,4.8-7.5,5.8c-2,0.5-3-0.2-3.8-1.9c-6.1-12-14.3-22.3-22.1-33.1
	c-3.6-4.9-6-10.7-9.1-16c-0.9-1.6-2.3-3.9-4.3-2.8c-1.7,1.1,0.6,2.6,1.1,4.1c8.5,23.6,13.2,47.4,8.2,72.9
	c-1.6,8.1,3.3,17.9,6.8,26.3c2.7,6.6,3.4,14,8.2,20.1c2.4,2.9-1.8,3.8-3.8,4.6c-2.6,1.1-4.4,1.8-6.1-2.6
	c-12.6-29.7-15.3-61.9-22.8-92.9c0-0.3-0.1-0.7-0.2-0.9c-1.9-5.4-2.6-13.6-9.4-12.8c-4.6,0.6-1.7,8.4-2.1,13
	c-1.2,19.5-4.4,38.6-13.6,56.1c-24,46.1-75,48.3-102.7,4.2c-11.8-18.8-16.4-39.8-18-61.9c-0.2-2.3,1.3-6.3-1.8-6.8
	c-3.7-0.7-4.1,3.5-4.8,6c-5.6,21.3-7.6,43.3-10.6,65.1c-1.7,12.8-9.3,23.6-10.2,36.5c-0.4,4.4-4.7,1.4-6.9,0.8
	c-1.8-0.4-4.6-0.9-2.7-4.5c7-13,8.3-27.9,13.3-41.7c0.5-1.5,0.7-3.2,0.3-4.6c-8.2-25-2.7-49,4.1-73.2c0.4-1.3,2.4-3.1,0.4-4.1
	c-1.7-0.9-2.8,1-3.4,2.4c-7.3,18.3-21.3,32.8-29.3,50.6c-0.8,1.9-1.5,2.4-3.5,2.1c-3-0.7-5.5-2.2-7.3-4.4c-2-2.3,0.4-3.1,1.5-4.5
	c7.9-10.4,17.6-19.7,17.9-34.1c0.2-5.8-0.8-6.9-6-3.8c-13.8,7.6-28.5,10.1-44,6.7c-17.1-3.8-24.3-12.1-24.3-29.6
	c0.1-6-3.7-5.8-7.2-6.7c-22.1-6-39.6-18.9-52.8-37.4c-15.5-21.7-10-39.1,14.8-48.8C145.6,261.8,162.1,259.5,179.6,258.9z
	 M357.8,394.4c11.4-0.5,23.3-1.8,35-4.2c18.3-3.6,19.6-5.9,13.3-23.4c-1.5-3.9-3.1-4.8-7.1-3.5c-24.7,7.8-49.7,7.7-74.8,2.7
	c-9.2-1.8-13.1,0.3-13.5,9.5c-0.2,1.9-0.8,3.8-1.2,5.6c-1.9,6.5,0.8,9.2,7.3,10.1C330.1,393.1,343.7,394.4,357.8,394.4z
	 M365.9,440.2c8-0.6,16.1-0.9,24.1-1.8c16.3-1.8,19.1-5.5,19.1-21.9c0-4.3-0.7-5.8-5.4-4.3c-8.6,2.8-17.5,4.5-26.5,5.4
	c-19.7,1.8-39.4,1.1-58.8-2.1c-2.6-0.4-6.6-3.1-8.2,1.6c-2.3,6.7,4.3,17.6,11.4,19C336.4,439.4,351,440.4,365.9,440.2z M520.2,283.9
	c-2.4,0.3-8.2-0.5-8.9,1.2c-1.8,3.8,2.9,6.4,5.2,9.3c7.4,9.4,16.3,17.4,26,24.4c21.3,15.3,27.1,14.4,44.9-4.9
	c4.4-4.9,3.4-6.8-1.3-10.1C566.2,291,544.6,284.8,520.2,283.9z M194.7,291.1c-15.5,1.1-31.5,5-46.4,12.7c-7.7,3.9-19.8,7.5-20,14.9
	c-0.2,7.9,11.4,12.7,18.8,17.9c3.4,2.5,6.8,4.4,11.5,1.8c18.7-10.5,33.8-24.8,46.2-42.2c3.3-4.6,1.3-5.4-3.2-5.1
	C199.6,291.1,197.7,291.1,194.7,291.1z M509.6,377.6c10.1-1.3,20.1-2.7,26.1-12.2c5.5-8.6,1.7-16.2-8.1-17.4c-10.3-1.4-20-5-29.1-10
	c-16.1-8.7-32.2-17.6-48.5-26.3c-1.5-0.8-3-2.7-5.2-1.1c1.3,1.1,2.4,2.1,3.7,3c19.9,14.9,37.3,32,47,55.5
	C498.5,376.3,502.9,378.1,509.6,377.6z M210.8,384.1c9.3-0.1,10.7-0.3,12.4-5.3c8.4-24.4,24.5-43,43.7-59.3c1.2-1.1,4.3-2,2.8-3.8
	c-1.3-1.6-3.5,0.8-5,1.7c-14.7,8.7-29.4,17.6-44,26.4c-8.6,5.2-17.9,9-27.8,11.2c-3.7,0.9-9-1.3-10.3,4.9c-1.3,6.4-0.4,12.3,5,16.7
	C194.9,382.5,203.5,383.6,210.8,384.1z M182.5,348c8.7,0.7,15.2-2.4,20.6-9.8c8.3-11.6,18.5-21.5,29.4-30.5c5-4,9.8-8.1,14.5-12.1
	c-6.6-2.6-13.7-1.9-20.5-3.2c-7-1.4-11,1.2-14.8,7.1c-9.2,14.2-21,26-34.4,36.3c-3.7,2.8-11.9,6.1-10.5,8.4
	C169.6,349,176.9,347.9,182.5,348z M493.8,286c-6.7,1.1-11.8,1.7-16.9,2.8c-2.3,0.5-6-1.2-6.6,2c-0.4,2.3,2.9,2.9,4.8,4.2
	c14.7,9.5,28.4,20.7,39.1,34.6c9.1,12.1,20.2,12.1,32.8,9.3c2-0.5,5.2,0,5.8-2.6c0.6-2.9-2.7-3.2-4.4-4.3
	c-17.5-10.5-32-24-43.9-40.4C501,287.1,497.8,284.4,493.8,286z M556.7,259.7c-7.2,0.2-10.6,9.3-17.8,12.6c-1.5,0.6-4.3,1.5-3.5,3.7
	c0.6,2,3.2,1.6,5.1,1.9c16.6,2.7,31.7,8.6,46.2,16.9c3.4,2,6.5,7.4,10.4,4.8c4.2-2.8,5.2-8.7,5.5-14c0.3-7.7-4.1-12.6-10.4-16.2
	C582,263.7,570.3,261.9,556.7,259.7z M275.7,287.6c6.5-0.4,13-0.7,19.4-1.3c1.5-0.1,4.3-1,4.3-1.5c0-2.4-2.6-2.5-4.2-3
	c-13.6-4.3-27.7-6.4-41.8-8.2c-23.7-3.1-47.5-6.2-71.5-6.7c-2,0-5-1.2-5.8,1.6c-0.2,0.9,2.3,2.7,3.8,3.7c8.3,5.3,17.3,9.7,27,10.4
	C229.9,284.4,252.7,288.5,275.7,287.6z M441.4,283.8c20.3-0.3,40.4-4.6,60.6-6.5c12.3-1.2,22.9-5.6,33.2-12c1.9-1.2,4.9-3.4,4.6-4.3
	c-1-3.4-4.3-1.6-6.5-1.5c-33.5,2.6-66.5,8.1-99.1,15.8c-5.8,1.3-12,2.3-16.9,6.5c5.8,3.7,12.2,1.5,18.4,2.1
	C437.4,284.1,439.4,283.9,441.4,283.8z M114.6,296.4c-0.2,3.5,1.5,7.2,3.5,11c1.6,3.1,3.4,4.4,6.7,1.9
	c15.9-12.3,33.7-20.1,53.4-23.8c1.4-0.2,3.4-0.3,2.9-2.8c-0.2-1.2-21.8-14.2-23.4-13.9c-11.8,2.1-23.5,4.5-33.9,10.9
	C118.3,283.2,114,288,114.6,296.4z M309.2,309.6c0-4.3-3.6-6.1-8.1-3.5c-25.6,14.5-48.2,32.5-62.9,58.7c-2.5,4.5-8.3,11.1-4.7,14.1
	c2.9,2.5,9.1-4.1,13.1-7.8c20-19.2,38.7-39.8,60.3-57.5C307.9,312.5,309.6,311.7,309.2,309.6z M359.5,348
	c10.7,0.3,21.2-1.3,31.5-3.6c2.3-0.5,8,0.4,5.3-5.2c-1.9-4.1-0.3-12-7.8-11.1c-19.6,2.4-39.1,2.8-58.8,1.1c-8.3-0.7-7.1,8-8.6,12.8
	c-1.7,5,4.3,3.7,6.6,4C338.3,347.7,348.9,349,359.5,348z M410.4,300.7c-2.1-0.4-3,0.3-3.5,1.6c-1,2.4-0.3,4.3,1.7,6
	c6.2,5.2,12.5,10.3,18.6,15.6c17.2,15.1,33.2,31.6,52.3,44.6c2.2,1.6,5.4,4.9,7.4,3.2c2.4-2.1-0.9-5.2-2.2-7.4
	c-16.6-29.2-42.5-48-71.9-62.4C411.7,301.2,410.8,300.9,410.4,300.7z M355.2,248.7c-11.2,0.8-22.4,3.7-29.4,15.2
	c-0.7,1.2-2.1,2.9-0.4,4.1c0.6,0.5,2.3,0,3.4-0.5c18.5-6.5,37.2-6.9,56-1c1.5,0.5,3,0.4,4.6,0.4c-0.5-1.5-0.8-3-1.6-4.3
	C379.7,252,368.8,248.5,355.2,248.7z M360.7,478.9c12-0.2,21.7-5.4,29.9-13.7c1.3-1.4,3.2-3.8,2.8-4.4c-1.5-2.4-4-0.7-5.9-0.4
	c-17.8,3.9-35.7,4.8-53.8,1.3c-1.4-0.3-3,0.1-4.5,0.3c0.7,1.4,1.1,3,2.2,4C339.6,473.7,349.1,478.9,360.7,478.9z M442.7,291.6
	c-2,0-3.9,0-5.8,0.2c-1.2,0.1-2.2,0.7-3.2,1.2c0.9,0.8,1.5,2,2.6,2.5c21.1,11.4,42.1,22.7,63.3,33.9c1.1,0.5,3.2,1.2,3.5,0.8
	c1.3-1.9-0.8-2.5-1.7-3.5c-9.7-10-20.1-19.2-32.3-26.2C460.7,295.8,452.7,290.5,442.7,291.6z M283.8,296.8c-0.1-2.2-1.7-1.7-2.8-1.8
	c-7,0.1-14-0.1-20.7,3.3c-15.8,8.1-28.8,19.5-40.7,32.3c-1.1,1.3-3.8,2.6-2,4.4c1.6,1.7,3.5-0.6,4.9-1.6
	c19.3-11.4,38.7-23,58.1-34.5C281.9,298.3,282.9,297.5,283.8,296.8z"/>
</svg>
